<svg id="Layer_1" data-name="Layer 1" xmlns="http://www.w3.org/2000/svg" viewBox="0 0 407.97 86.4">
	<defs>
		<style>.cls-1{fill:#1c1c1b;}</style>
	</defs>
	<path class="cls-1" d="M189.08,97.11a35.91,35.91,0,0,0-6.52,31.4h24.65Z" transform="translate(-102.01 -69.35)"/>
	<path class="cls-1" d="M251.36,105.81a36.38,36.38,0,0,0-24-21.36l-12.33,21.36Z" transform="translate(-102.01 -69.35)"/>
	<path class="cls-1" d="M222.72,83.49a35.67,35.67,0,0,0-30.46,10l12.33,21.37Z" transform="translate(-102.01 -69.35)"/>
	<path class="cls-1" d="M252.83,110.35H228.18l18.14,31.4a35.93,35.93,0,0,0,6.51-31.4Z" transform="translate(-102.01 -69.35)"/>
	<path class="cls-1" d="M184,133.05a36.35,36.35,0,0,0,24,21.35l12.33-21.35Z" transform="translate(-102.01 -69.35)"/>
	<path class="cls-1" d="M212.68,155.37a34.69,34.69,0,0,0,5,.38,36.19,36.19,0,0,0,25.44-10.42L230.81,124Z" transform="translate(-102.01 -69.35)"/>
</svg>